<svg xmlns="http://www.w3.org/2000/svg" height="800" width="1200" style="isolation:isolate" viewBox="-26.477235 -8.46575 229.46937 50.7945"><defs><clipPath id="a"><path d="M0 0h176.515v33.863H0z"/></clipPath></defs><g clip-path="url(#a)" fill-rule="evenodd"><path fill="#F79C34" d="M69.652 26.489c-6.523 4.814-15.98 7.374-24.124 7.374-11.413 0-21.691-4.219-29.469-11.242-.61-.552-.066-1.305.668-.878 8.391 4.883 18.769 7.824 29.486 7.824 7.23 0 15.178-1.501 22.491-4.603 1.103-.467 2.028.727.948 1.525z"/><path fill="#F79C34" d="M72.367 23.389c-.835-1.068-5.515-.506-7.618-.254-.637.077-.736-.48-.162-.883 3.734-2.623 9.853-1.866 10.564-.987.716.885-.189 7.02-3.687 9.947-.539.45-1.051.21-.812-.384.788-1.967 2.55-6.369 1.715-7.439z"/><path fill="#333E47" d="M64.897 3.724V1.176c.002-.388.294-.646.646-.645L76.965.53c.365 0 .659.265.659.643v2.185c-.004.367-.313.845-.86 1.604l-5.917 8.448c2.196-.051 4.519.278 6.515 1.399.45.253.571.628.606.995v2.719c0 .375-.41.808-.842.583-3.515-1.842-8.18-2.043-12.068.022-.397.212-.812-.216-.812-.591v-2.585c0-.413.008-1.121.425-1.751l6.854-9.834-5.968-.001c-.365 0-.658-.26-.66-.642zM23.233 19.641h-3.475c-.331-.021-.595-.269-.622-.587l.003-17.835c0-.356.3-.641.671-.641l3.236-.001c.338.017.61.273.631.599v2.328h.066c.843-2.252 2.432-3.303 4.573-3.303 2.173 0 3.536 1.051 4.509 3.303.843-2.252 2.757-3.303 4.8-3.303 1.46 0 3.049.601 4.022 1.952 1.103 1.502.877 3.678.877 5.592L42.52 19c0 .355-.299.641-.67.641h-3.47c-.35-.022-.624-.298-.624-.64l-.001-9.455c0-.75.065-2.626-.098-3.339-.259-1.202-1.037-1.54-2.042-1.54-.844 0-1.72.563-2.077 1.463-.357.902-.324 2.402-.324 3.416V19c0 .355-.3.641-.67.641h-3.471c-.349-.022-.624-.298-.624-.64l-.004-9.455c0-1.989.325-4.915-2.14-4.915-2.498 0-2.4 2.851-2.4 4.915L23.903 19c0 .355-.3.641-.67.641zM87.488 3.842c-2.562 0-2.724 3.489-2.724 5.666 0 2.177-.032 6.831 2.693 6.831 2.692 0 2.822-3.753 2.822-6.042 0-1.501-.066-3.303-.52-4.729-.389-1.239-1.168-1.726-2.271-1.726zM87.457.201c5.157 0 7.946 4.43 7.946 10.059 0 5.44-3.081 9.757-7.946 9.757-5.061 0-7.818-4.429-7.818-9.945 0-5.555 2.789-9.871 7.818-9.871zm14.635 19.44h-3.463c-.347-.022-.623-.298-.623-.64L98 1.16c.03-.327.318-.582.668-.582l3.223-.001c.304.016.554.222.618.499v2.728h.065c.974-2.44 2.335-3.603 4.735-3.603 1.557 0 3.082.563 4.055 2.102.908 1.426.908 3.827.908 5.554V19.08c-.038.316-.322.561-.666.561h-3.483c-.322-.02-.581-.257-.619-.561V9.397c0-1.952.228-4.805-2.173-4.805-.843 0-1.622.563-2.011 1.426-.487 1.089-.552 2.177-.552 3.379V19c-.006.355-.306.641-.676.641zm-42.798-.044c-.229.206-.56.22-.82.081-1.154-.959-1.361-1.402-1.992-2.316-1.907 1.943-3.258 2.526-5.729 2.526-2.925 0-5.201-1.806-5.201-5.416 0-2.821 1.529-4.739 3.706-5.679 1.885-.828 4.518-.978 6.534-1.204v-.451c0-.829.065-1.805-.423-2.52-.423-.64-1.235-.903-1.95-.903-1.326 0-2.503.679-2.793 2.086-.061.313-.289.624-.603.64l-3.369-.365c-.284-.065-.6-.293-.519-.727C46.9 1.32 50.498.064 53.768.03h.258c1.674.021 3.812.48 5.114 1.729 1.691 1.58 1.527 3.686 1.527 5.981v5.413c0 1.629.677 2.343 1.312 3.22.223.317.272.692-.011.924-.71.595-1.971 1.69-2.664 2.308zm-3.502-8.472c0 1.354.032 2.482-.65 3.686-.553.977-1.431 1.579-2.406 1.579-1.332 0-2.112-1.015-2.112-2.52 0-2.96 2.654-3.498 5.168-3.498zm-42.049 8.472c-.23.206-.562.22-.821.081-1.155-.959-1.362-1.402-1.992-2.316-1.908 1.943-3.258 2.526-5.729 2.526C2.276 19.888 0 18.082 0 14.472c0-2.821 1.527-4.739 3.706-5.679 1.885-.828 4.518-.978 6.533-1.204v-.451c0-.829.066-1.805-.422-2.52-.423-.64-1.236-.903-1.95-.903-1.326 0-2.505.679-2.793 2.086-.06.313-.289.624-.604.64l-3.368-.365c-.285-.065-.601-.293-.519-.727C1.346 1.32 4.945.064 8.216.03h.258c1.674.021 3.812.48 5.114 1.729 1.69 1.58 1.527 3.686 1.527 5.981v5.413c0 1.629.677 2.343 1.312 3.22.221.317.272.692-.011.924-.71.595-1.972 1.69-2.665 2.308zm-3.504-8.472c0 1.354.033 2.482-.65 3.686-.552.977-1.43 1.579-2.406 1.579-1.332 0-2.112-1.015-2.112-2.52 0-2.96 2.655-3.498 5.168-3.498zm149.534 14.914v-1.31c0-.373.183-.63.572-.607.726.103 1.753.206 2.482.056.952-.198 1.635-.873 2.039-1.798.569-1.302.946-2.352 1.184-3.041l-7.229-17.908c-.122-.304-.158-.868.449-.868h2.527c.482 0 .678.306.786.606l5.241 14.546 5.003-14.546c.102-.298.307-.606.785-.606h2.383c.603 0 .569.563.449.868l-7.171 18.467c-.928 2.458-2.164 6.373-4.948 7.053-1.396.365-3.157.233-4.191-.2-.261-.131-.361-.481-.361-.712zm-3.371-7.489c0 .333-.273.606-.608.606h-1.782c-.385 0-.648-.278-.697-.606l-.179-1.213c-.819.693-1.824 1.302-2.914 1.726-2.096.814-4.512.949-6.56-.309-1.481-.909-2.267-2.686-2.267-4.519 0-1.418.437-2.824 1.406-3.845 1.293-1.395 3.167-2.08 5.43-2.08 1.367 0 3.323.161 4.746.626V6.495c0-2.482-1.045-3.556-3.8-3.556-2.106 0-3.717.318-5.959 1.015-.359.012-.569-.261-.569-.594V1.968c0-.334.285-.657.594-.755C144.844.515 147.112.08 149.523 0c3.143 0 6.879.709 6.879 5.543zm-3.425-3.564v-3.683c-1.196-.327-3.175-.463-3.941-.463-1.21 0-2.535.286-3.227 1.031-.517.546-.751 1.33-.751 2.088 0 .98.339 1.963 1.131 2.449.92.625 2.347.549 3.688.168 1.289-.366 2.499-1.013 3.1-1.59zm-22.85-11.992c3.954 0 5.031 3.109 5.031 6.669.022 2.4-.419 4.54-1.662 5.765-.93.917-1.969 1.167-3.533 1.167-1.392 0-3.223-.726-4.591-1.737V4.679c1.424-1.094 3.241-1.685 4.755-1.685zm-5.361 23.684h-2.387c-.334 0-.607-.273-.607-.606V1.201c0-.333.273-.606.607-.606h1.827c.384 0 .647.278.696.606l.192 1.303c1.711-1.519 3.914-2.493 6.013-2.493 5.879 0 7.812 4.844 7.812 9.881 0 5.389-2.957 9.719-7.958 9.719-2.106 0-4.075-.777-5.589-2.127v8.588c0 .333-.273.606-.606.606z"/></g></svg>